<svg xmlns="http://www.w3.org/2000/svg" xmlns:xlink="http://www.w3.org/1999/xlink" width="72" height="62"><rect width="100%" height="100%" fill="none"/><defs><path id="a" d="M63.84 128.44c2.357-1.274 5.02-1.085 9.2-1.08l1.4-.005 1.258-.022c4.296-.042 7.87.366 7.806-6.38s-3.062-12.198-7.354-12.155c-4.297.037-8.454 5.564-8.197 12.306.07 1.756.328 3.023.742 3.937-3.745.938-4.777 3.254-4.835 3.4zm51.657-27.75a47.64 47.64 0 0 1-5.25 3.712l-6.097 3.68a51.996 51.996 0 0 0-7.33 1.467c-.112.03-.22.08-.317.14-.296.17-.52.455-.63.794l-6.21 20.46-33.185 7.38-10.452-7.32-3.04-24.634c5.936-1.1 13.874-2.352 23.4-3.42a56.802 56.802 0 0 0-2.955 3.855l-5.677 8.15 8.266-5.51c.123-.086 5.387-3.55 13.998-7.76a377.38 377.38 0 0 1 28.188-1.06l7.28.07z"/><path id="b" d="M151.835 125.675c-.042-.16-.945-2.873-4.942-2.397.46-1.003.666-2.356.52-4.2-.528-6.73-4.443-12.08-8.735-11.93s-7.042 5.73-6.805 12.478c.236 6.74 3.84 6.694 8.132 6.543 5.77-.107 8.94-1.88 11.83-.483zm21.18-19.385l-2.992 20.944-10.54 7.38-33.14-3.766-6.183-20.363a1.41 1.41 0 0 0-.945-.934c-.205-.06-4.308-1.23-8.66-1.607l.795-.053c.687-.05 12.118-1.45 25.767-6.157 15.115 1.16 27.458 3.02 35.897 4.557z"/></defs><g class="currentLayer"><path d="M4.723 49.334h-4v-2.07h10.435v2.07H7.174V61.11H4.722V49.326zm6.206 1.38h2.023l.17 1.84h.077c.743-1.356 1.84-2.092 2.95-2.092.536 0 .866.06 1.188.215l-.43 2.115a3.35 3.35 0 0 0-1.073-.17c-.827 0-1.823.568-2.452 2.146v6.336h-2.454V50.706zm13.048 3.754c-.023-1.11-.5-2.038-1.885-2.038-1.034 0-2.007.46-2.91 1.01l-.896-1.632c1.15-.72 2.605-1.356 4.252-1.356 2.605 0 3.87 1.586 3.87 4.482v6.16h-1.992l-.184-1.15h-.077c-.92.78-1.992 1.394-3.218 1.394-1.816 0-3.088-1.226-3.088-3.05 0-2.222 1.862-3.386 6.114-3.854zm-2.275 4.972c.858 0 1.51-.414 2.275-1.134v-2.33c-2.82.368-3.754 1.11-3.754 2.145 0 .92.613 1.333 1.486 1.333zm5.4-8.734h2.475l1.655 5.394.866 3.14h.077l.896-3.14 1.655-5.386h2.352l-3.524 10.39h-2.836l-3.616-10.398zm10.88-3.195c0-.827.636-1.394 1.51-1.394.866 0 1.502.567 1.502 1.394 0 .797-.636 1.38-1.502 1.38s-1.51-.582-1.51-1.38zm.276 3.195h2.452V61.11h-2.452V50.706zm4.98 7.64c.935.72 1.823 1.165 2.88 1.165 1.12 0 1.647-.536 1.647-1.25 0-.873-1.11-1.256-2.222-1.686-1.364-.498-2.91-1.28-2.91-3.02 0-1.823 1.456-3.11 3.792-3.11 1.433 0 2.605.6 3.448 1.25l-1.126 1.48c-.72-.536-1.456-.89-2.298-.89-1.034 0-1.517.5-1.517 1.15 0 .797 1.034 1.15 2.145 1.532 1.425.536 2.988 1.226 2.988 3.164 0 1.762-1.425 3.218-4.045 3.218-1.417 0-2.91-.613-3.938-1.456l1.15-1.563zm18.77-11.34c1.686 0 3.065.82 3.938 1.762l-1.356 1.51c-.72-.7-1.502-1.15-2.56-1.15-2.268 0-3.892 1.915-3.892 5.018 0 3.14 1.502 5.057 3.808 5.057 1.226 0 2.145-.513 2.927-1.38l1.356 1.502c-1.11 1.287-2.55 2.007-4.306 2.007-3.51 0-6.282-2.544-6.282-7.125 0-4.536 2.835-7.225 6.4-7.225zm5.715.253h2.452V61.11h-2.452V47.256z" fill="#353635"/><g><path d="M23.695 18.234s-6.035 4.247-6.27 5.866l.452-.094s7.227-4.79 12.955-5.371l.13-.727-7.267.328zm9.473-.607l-4.751 3.371.257.206c.194-.156 8.443-2.675 8.443-2.675l1.74-1.09c-1.167.145-5.686.188-5.686.188zm4.131 4.078c3.375 0 8.435-3.306 8.435-3.306l-1.636-.311c-.08.08-2.637-.09-2.637-.09l-1.214-.337-2.899 3.304-.236.573c.208-.085.187.167.187.167zm11.014 10.542l-1.043.293-4.817-.104-3.014-2.343-3.643.911-4.213-.364-2.359 2.578-4.427 1.322-2.21-.685-.111-.096.992 2.43s2.247 2.409 3.502 2.692 3.522-.02 5.223-.284 3.057-.872 3.604-1.862.627-1.276.627-1.276 1.62 2.288 3.017 2.551 5.547-1.154 5.547-1.154 2.53-.688 2.976-1.559 1.62-3.723 1.62-3.723l-1.271.675zM23.05 34.226l-.07-.032-.39-.337.46.369z" fill="#cb3349"/><path d="M52.405 15.037l-.038-.39-.042-.276a7.92 7.92 0 0 0-1.154-.79c-.446-.26-.912-.493-1.389-.71l-1.446-.622-.737-.286-.744-.276 1.555.337.996.287C47.058 6.172 41.442 2.174 35.311 2.174S23.564 6.172 21.215 12.311c.33-.104.663-.2.997-.287.514-.132 1.032-.25 1.554-.337l-.744.276-.739.286a27.84 27.84 0 0 0-1.446.622c-.476.217-.942.45-1.388.71a8.057 8.057 0 0 0-1.155.79 7.468 7.468 0 0 0-.078.666 11.436 11.436 0 0 0 .063 2.358c.071.522.167 1.04.309 1.541.07.252.149.5.24.739.046.12.096.237.149.352a5.399 5.399 0 0 0 .08.168l.033.063.118.058.233.112.46.213a.328.328 0 0 0 .023-.022l-.433-1.65c.092-.026.915-.238 2.333-.508a7.005 7.005 0 0 1-1.294-.377 4.183 4.183 0 0 1-.448-.217 1.535 1.535 0 0 1-.395-.3c1.559.509 4.779.278 7.64-.017 2.619-.27 5.243-.445 7.88-.45 2.638.005 5.262.18 7.879.45 2.863.296 6.083.526 7.641.017-.109.124-.25.218-.394.3a4.363 4.363 0 0 1-.448.217 7.06 7.06 0 0 1-.95.303c-.048.012-.096.022-.144.032 1.555.289 2.46.523 2.557.549l-.414 1.57.252-.11.233-.112.118-.058.032-.064a3.268 3.268 0 0 0 .081-.167c.053-.115.103-.233.148-.353.092-.24.171-.487.24-.738a11.478 11.478 0 0 0 .371-3.9z" fill="#f4edae"/><path d="M37.077 36.868l-.618.072-.4.02-.046.001.372-.842.692.748zm.448.457c.641.634 1.435.998 2.309 1.063a12.743 12.743 0 0 1-3.917.897 9.658 9.658 0 0 1-3.194-.343 4.342 4.342 0 0 1 .23-.037c.088-.01 1.98-.257 2.833-1.525h.29c.141 0 .27-.012.406-.017a8.472 8.472 0 0 0 .946-.137l.097.097z" fill="#e6ccad"/><path d="M39.341 18.33l-.203.261c-.375.474-.895 1.08-1.511 1.673l-2.212-.034c-1.253 0-2.454.033-3.595.088 1.61-.669 3.548-1.322 5.644-1.714a22.078 22.078 0 0 1 1.876-.273zm-9.433.722c-.575.404-1.225.92-1.855 1.546a71.66 71.66 0 0 0-4.182.543 31.7 31.7 0 0 1 6.037-2.09zm19.714 3.332l-.656 4.592-3.144 2.202-8.2-.933-1.234-4.064a.27.27 0 0 0-.215-.188c-.303-.05-.572-.074-.796-.074s-.493.025-.798.074a.27.27 0 0 0-.215.188l-1.202 3.966-8.154 1.814-3.233-2.264-.637-5.153.422-.233.674-.136.6 4.862a.27.27 0 0 0 .114.188l2.223 1.557a.276.276 0 0 0 .213.041l6.704-1.491a.285.285 0 0 0 .067-.024.27.27 0 0 0 .132-.16l1.207-3.976c.324-.083 1.153-.277 1.882-.277.728 0 1.558.194 1.881.277l1.208 3.975a.27.27 0 0 0 .228.19l6.704.761a.272.272 0 0 0 .184-.047l2.224-1.556a.28.28 0 0 0 .112-.183l.593-4.154 1.112.227zm.828-2.88l-.577 2.191c-1.18-.26-3.773-.77-7.302-1.114 1.153-.492 2.327-1.109 3.4-1.881 2.1.296 3.642.614 4.48.804z" fill="#656c67"/><g fill="#e5caa3" stroke-width="0" transform="translate(2.414 10.48) scale(.19392)"><use xlink:href="#a" y="-46.582" x="61.96"/><use xlink:href="#b" y="-46.582" x="61.96"/></g><g fill="#c7b39a" stroke-width="0" transform="translate(2.414 10.48) scale(.19392)"><use xlink:href="#a" y="-46.582" x="61.96"/><use xlink:href="#b" y="-46.582" x="61.96"/></g><path d="M50.786 23.844c.098.082.174.292.088 1.272-.108 1.2-.613 3.306-.925 3.646-.345.066-1.067-.013-1.508-.116.076-.302.098-.447.16-.756l.77-.54a.27.27 0 0 0 .113-.182l.538-3.775c.327.177.664.369.764.451zm-28.418 4.927l.12.407c-.414.122-1.259.239-1.64.172-.317-.319-.908-2.514-1.037-3.68-.105-.945-.032-1.15.064-1.229.112-.093.53-.33.891-.525l.489 3.966c.01.076.05.144.113.188l1 .701zm15.591.055l-.029.253s-.888.824-2.318 1.009-2.554-.695-2.554-.695c.047.153.113.498.437.793a10.314 10.314 0 0 0-1.224-.077 9.694 9.694 0 0 0-.466.012c-.88.046-2.118 1.377-2.989 2.718l-3.308 1.015a17.557 17.557 0 0 1-2.224-4.253l-.085-.247.371.26.917.64.306.214c.046.032.1.049.154.049a.304.304 0 0 0 .06-.006l8.422-1.875a.269.269 0 0 0 .199-.184l1.201-3.956c.208-.029.39-.043.546-.043s.338.014.546.043l1.236 4.071a.268.268 0 0 0 .227.19l.576.066zm9.617-.218l.272-.191-.145.561a19.439 19.439 0 0 1-1.32 3.23 5.052 5.052 0 0 1-.349.012c-.382 0-.773-.032-1.205-.072l-2.317-.248-2.354-1.865-.098-.081c-.162-.138-.349-.294-.72-.294-.34 0-.836.124-2.037.487.623-.466.627-1.067.627-1.067l.03-.253 7.901.898a.273.273 0 0 0 .185-.047l1.528-1.07z" fill="#e6ccad"/><path d="M41.76 11.983c.024.703.007 1.977-.32 3.17a.259.259 0 0 0 0 .136l-1.25-.116c.467-.98.569-2.024.591-2.392.36-.255.717-.561.98-.8zm-11.922.8c.022.368.124 1.41.59 2.388l-1.248.116a.258.258 0 0 0 0-.135c-.327-1.19-.344-2.465-.321-3.17.262.24.62.544.98.8z" fill="#ebd599"/><path d="M43.873 25.817c-.562-.27-1.175.073-2.293.094-.833.029-1.531.038-1.577-1.269-.046-1.308.487-2.39 1.32-2.42s1.591 1.009 1.693 2.314c.028.36-.011.622-.1.814.774-.092.95.434.957.465zM41.258 23.9a.425.425 0 1 0-.016-.85.425.425 0 0 0-.417.433.425.425 0 0 0 .433.417z" fill="#2d3136"/><circle transform="matrix(.19388 -.00355 .00355 .19388 2.016 10.973)" cx="201.111" cy="68.16" r="2.194" fill="#edf6fa"/><path d="M30.619 24.901c.012 1.309-.68 1.23-1.514 1.237l-.244.005a5.71 5.71 0 0 1-.27 0c-.808 0-1.325-.037-1.784.21.012-.028.214-.477.938-.66-.08-.176-.13-.422-.144-.763-.05-1.307.756-2.38 1.59-2.386s1.413 1.049 1.426 2.357zm-1.287-.684a.425.425 0 1 0-.022-.851.425.425 0 0 0 .022.85z" fill="#2d3136"/><circle transform="rotate(-1.497 423.821 -66.153) scale(.19393)" cx="139.925" cy="70.257" r="2.195" fill="#edf6fa"/><path d="M24.261 16.02s.13-1.686.394-2.332c.136-.332.969-.543 1.605-.698s1.65-.454 1.847.44.514 1.544.726 1.831l-.272-3.679-4.377 1.062-.288 3.255.136.257.227-.136m22.14 0s-.13-1.686-.394-2.332c-.137-.332-.97-.543-1.605-.698s-1.648-.454-1.847.44-.515 1.544-.727 1.831l.273-3.679 4.375 1.06.288 3.255-.137.258-.227-.137" opacity=".8" fill="#ebd599"/><path d="M40.214 5.01s-.116 8.823-2.176 8.823H32.68c-2.06 0-2.227-8.818-2.227-8.818L29.44 8.007l.016 4.108.72.572.326 1.764.457 1.029 8.82.016.408-.737.344-1.241.049-.784.974-2.78-1.34-4.946zm6.49 8.225s.424 3.043 1.546 3.592l-1.571-.474.025-3.118zm-22.79 0s-.424 3.043-1.547 3.592l1.572-.474-.026-3.118z" opacity=".75" fill="#ebd599"/><path d="M47.006 16.339c.534.175 1.071.36 1.558.645a6.165 6.165 0 0 0-.8-.244l-.815-.18-1.647-.256-1.658-.18-1.662-.126c-2.22-.136-4.446-.17-6.671-.173A113.94 113.94 0 0 0 28.64 16a56.78 56.78 0 0 0-1.662.126 35.278 35.278 0 0 0-1.658.18 25.45 25.45 0 0 0-1.648.257 14.034 14.034 0 0 0-.815.178c-.272.067-.54.14-.8.244.484-.285 1.024-.471 1.559-.646.045-.015.09-.027.136-.042l-.008-.034c-.01-.061-.208-1.524.136-3.616a.26.26 0 0 1 .186-.208l.566-.161c.123-4.388 1.93-6.451 1.986-6.515-1.614 2.598-1.6 5.68-1.572 6.397l3.516-1 .008-.001a.31.31 0 0 1 .044-.006l.014-.001a.23.23 0 0 1 .058.005l.01.003a.243.243 0 0 1 .043.014l.017.01a.35.35 0 0 1 .034.022c.004.002.007.003.01.006l.006.007c.003.003.008.005.01.008a11.003 11.003 0 0 0 .246.235c-.036-1.159.02-4.481 1.602-7.234-.034.097-1.29 3.768-.856 7.882a6.574 6.574 0 0 0 .432.32.262.262 0 0 1 .113.212c.001.013.031 1.325.61 2.44a.358.358 0 0 1 .02.052 65.64 65.64 0 0 1 4.327-.138c1.442 0 2.886.042 4.326.141a.26.26 0 0 1 .021-.055c.58-1.116.61-2.427.61-2.44a.267.267 0 0 1 .116-.214 7.123 7.123 0 0 0 .431-.32c.434-4.114-.822-7.785-.853-7.882 1.581 2.754 1.638 6.077 1.602 7.233l.245-.232.01-.009.006-.006a.86.86 0 0 1 .01-.006l.034-.023c.006-.002.01-.006.016-.009a.318.318 0 0 1 .046-.015l.01-.002a.221.221 0 0 1 .057-.005h.013a.316.316 0 0 1 .045.007l.008.002 3.516.999c.028-.718.043-3.8-1.572-6.397.058.064 1.862 2.128 1.985 6.515l.567.16a.262.262 0 0 1 .187.21c.344 2.091.146 3.554.137 3.615a.304.304 0 0 1-.008.035l.137.042zm-.64-.188c.028-.234.156-1.512-.116-3.258l-3.977-1.13c.035.673.051 2.135-.331 3.529a.314.314 0 0 1-.02.05c.04.004.08.007.118.012 1.119.128 2.23.307 3.335.55.332.076.664.159.994.248zm-4.925-.998c.327-1.193.345-2.467.32-3.17-.262.238-.62.543-.979.8-.022.368-.124 1.411-.591 2.391l1.25.117a.258.258 0 0 1 0-.137zm-11.011.019c-.467-.98-.57-2.021-.59-2.389-.361-.255-.718-.561-.98-.8-.023.704-.006 1.98.32 3.17a.258.258 0 0 1 0 .134l1.25-.115zm-1.732.167a.32.32 0 0 1-.02-.048c-.382-1.393-.368-2.855-.331-3.53l-3.98 1.132c-.268 1.742-.143 3.022-.116 3.257.33-.09.66-.172.995-.249.55-.121 1.104-.223 1.659-.317a37.997 37.997 0 0 1 1.673-.231c.04-.006.078-.009.118-.014zM39.504 5.125v3.302h-2.34v-.965h-.528v4.457h.795v2.491H33.34V11.92h.793V7.462h-.523v.965h-2.34V5.125h8.236zm-.703 2.6v-1.9h-6.833v1.9h.934v-.964h1.932v5.861h-.795v1.087h2.69v-1.087h-.796V6.761h1.932v.964h.934z" fill="#2d3136"/><path d="M34.04 13.709v-1.087h.794V6.76h-1.932v.964h-.934v-1.9H38.8v1.9h-.934v-.964h-1.932v5.86h.795v1.088z" fill="#cb3349"/><path d="M20.382 19.504l1.367-.285-1.207.891-.16-.606z" fill="#656c67"/><g fill="#c7b39a" stroke-width="0"><path d="M32.871 28.552s.096.614-.763.877-6.3 1.884-6.92 1.796-2.195-1.14-2.195-1.14l-.382-1.357 2.33 1.453 7.93-1.629zm4.874-.119s-.069.617.8.843 6.376 1.609 6.992 1.494 2.143-1.233 2.143-1.233l.323-1.374-2.142 1.277-8.116-1.006z"/><path d="M19.94 27.423s.753 1.508 1.97.986l.87.319-.087.64-1.826.231-.493-.29-.435-1.884zm30.86-.414s-1.233 1.574-2.45 1.052l-.392.252.087.64 1.827.232.492-.29.435-1.884zM31.742 38.854s4.466 2.25 9.522-.812l-1.623-.11s-3.544 1.402-6.35.627l-1.55.295z"/></g><path d="M36.27 34.705l.31.369c.006.009.693.826 1.532 1.658a2.762 2.762 0 0 0 2.006.834c.264 0 .541-.034.821-.102l.832-.2 2.8-.693c.113-.033.24-.061.373-.092.763-.176 1.809-.42 2.363-1.53l1.396-2.707c-.362.167-.74.349-1.01.489-.414.217-.957.323-1.659.323-.417 0-.827-.035-1.28-.076-.907-.083-2.441-.263-2.457-.266l-.118-.013-.092-.074c-.014-.01-1.358-1.081-2.445-1.935l-.12-.1c-.116-.097-.116-.097-.183-.097-.348 0-1.361.314-3.58 1.002l-.136.043-.134-.05c-.015-.006-1.471-.544-3.215-.544a8.23 8.23 0 0 0-.424.011c-.175.01-1.155.475-2.41 2.46l-.081.127-.143.046c-.021.007-2.18.704-4.469 1.358l-.148.042-.141-.065c-.015-.006-.91-.421-1.763-.813.465.686 1.06 1.543 1.583 2.215.913 1.176 2.065 2.264 4.273 2.264a7.782 7.782 0 0 0 .873-.052c2.245-.254 2.824-.356 3.135-.41.105-.018.189-.033.295-.046.017-.002 1.856-.24 2.372-1.398l.644-1.483.188-.501s.023-.13.061-.17l.005.004c.06.042.147.174.147.174zM22.283 12.247c-.488.197-.973.4-1.446.623-.476.217-.942.45-1.388.71a7.978 7.978 0 0 0-1.155.79c-.015.088-.029.185-.04.276l-.04.39a10.04 10.04 0 0 0-.036.787 11.586 11.586 0 0 0 .407 3.115c.07.251.149.5.24.738.046.12.096.238.149.352a5.399 5.399 0 0 0 .08.168l.033.063a3.861 3.861 0 0 0 .117.058l.234.112.46.212a.304.304 0 0 0 .023-.023l-.432-1.65c.09-.025.915-.238 2.333-.508a7.08 7.08 0 0 1-1.294-.377c-.153-.065-.304-.135-.448-.217s-.285-.175-.395-.3c1.558.51 4.778.28 7.64-.015 2.618-.27 5.241-.445 7.879-.45 2.637.005 5.262.18 7.879.45 2.864.295 6.084.526 7.642.017-.11.125-.251.218-.395.3s-.295.152-.448.217a7.14 7.14 0 0 1-.95.303l-.144.033c1.555.288 2.46.523 2.557.549l-.415 1.572.25-.111.234-.112.118-.058.032-.063a4.07 4.07 0 0 0 .081-.168 6.14 6.14 0 0 0 .149-.352 8.09 8.09 0 0 0 .24-.738c.141-.5.238-1.02.309-1.542a11.464 11.464 0 0 0 .063-2.36c-.011-.13-.025-.26-.041-.39a5.785 5.785 0 0 0-.042-.276 7.951 7.951 0 0 0-1.154-.79 15.67 15.67 0 0 0-1.389-.71 27.47 27.47 0 0 0-1.446-.623l-.737-.286-.744-.276a18.05 18.05 0 0 1 1.554.337 20.32 20.32 0 0 1 .997.288C47.058 6.172 41.44 2.175 35.309 2.175c-6.132 0-11.747 3.997-14.095 10.137.33-.104.662-.201.995-.287.514-.132 1.033-.251 1.556-.338l-.745.276a29.117 29.117 0 0 0-.737.286zM53.2 15.8c.028.565.013 1.131-.05 1.694-.059.56-.165 1.117-.314 1.668a8.732 8.732 0 0 1-.272.814c-.054.135-.11.269-.175.402a3.44 3.44 0 0 1-.101.199l-.055.099a1.74 1.74 0 0 1-.068.111l-.057.089-.089.046a6.638 6.638 0 0 1-.26.126l-.252.114a17.108 17.108 0 0 1-.508.206l-.322.131-.28 1.064-.25-.06-.014.11c.309.162.916.49 1.123.66.417.344.446.89.354 1.908-.048.523-.221 1.541-.462 2.476-.416 1.61-.637 1.799-.922 1.872a2.5 2.5 0 0 1-.583.074c-.44 0-1.038.012-1.44-.085a15.416 15.416 0 0 1-.984 2.513c.03-.014.059-.026.085-.04.72-.378 2.106-.982 2.164-1.008l1.095-.476L50 31.56c-.013.023-1.214 2.283-1.95 3.759-.732 1.462-2.102 1.78-2.922 1.968l-.336.083c-.589.165-1.78.45-2.831.702-.013.003-.026.007-.039.008-.646.4-1.352.757-2.124 1.05-2.825 1.07-5.803 1.01-8.502.017l-1.783.213a8.75 8.75 0 0 1-.967.056c-2.572 0-3.935-1.306-4.93-2.584-1.065-1.37-2.368-3.403-2.424-3.488l-.751-1.176 1.277.574 2.948 1.358.125-.037a15.632 15.632 0 0 1-2.074-4.195 6.216 6.216 0 0 1-1.591.228c-.186 0-.354-.014-.482-.044-.285-.065-.61-.34-1.053-1.9-.257-.905-.449-1.893-.505-2.402-.11-.993-.09-1.525.322-1.868.25-.208 1.088-.649 1.262-.74l-.037-.306c-2.666 1.567-4.264 2.952-4.297 2.98L14.43 27.49l1.359-2.142a20.88 20.88 0 0 1 3.46-4.128l-.136-.057-.253-.113a6.92 6.92 0 0 1-.26-.127l-.089-.046-.057-.088c-.032-.049-.046-.076-.067-.112l-.058-.1-.1-.198a5.988 5.988 0 0 1-.173-.401 8.676 8.676 0 0 1-.273-.815 10.597 10.597 0 0 1-.314-1.668 10.647 10.647 0 0 1-.05-1.694 10.028 10.028 0 0 1 .081-.844c.02-.14.041-.281.07-.42a6.173 6.173 0 0 1 .1-.432l.03-.109.078-.061c.445-.35.925-.614 1.413-.848a15.295 15.295 0 0 1 1.224-.507c1.152-3.199 3.134-6.035 5.738-8.011 2.693-2.043 5.86-3.123 9.157-3.123s6.464 1.08 9.157 3.123c2.604 1.977 4.586 4.813 5.737 8.01.414.153.823.318 1.225.509.488.233.97.497 1.412.847l.079.061.03.11a5.232 5.232 0 0 1 .1.43 6.36 6.36 0 0 1 .07.421 9.328 9.328 0 0 1 .08.844zm-2.326 9.314c.089-.98.011-1.19-.088-1.27-.1-.084-.436-.275-.763-.453l-.54 3.775a.27.27 0 0 1-.112.183l-.771.539c-.061.309-.083.454-.158.757.44.102 1.163.181 1.507.115.313-.34.817-2.443.925-3.646zm-1-3.422l.577-2.191c-.838-.19-2.38-.508-4.48-.805-1.072.771-2.246 1.388-3.4 1.88 3.53.342 6.123.854 7.302 1.114zm-.908 5.282l.656-4.592-1.11-.226-.594 4.154a.274.274 0 0 1-.112.183l-2.224 1.555a.27.27 0 0 1-.184.048l-6.704-.763a.27.27 0 0 1-.228-.188l-1.208-3.976c-.323-.083-1.154-.277-1.88-.277-.73 0-1.56.194-1.883.277l-1.208 3.976a.27.27 0 0 1-.132.16.257.257 0 0 1-.066.023l-6.703 1.495a.29.29 0 0 1-.06.006.264.264 0 0 1-.153-.048l-2.224-1.558a.271.271 0 0 1-.113-.187l-.6-4.862-.674.136-.422.235.636 5.152 3.232 2.264 8.154-1.813 1.204-3.966a.27.27 0 0 1 .215-.19c.305-.048.572-.073.798-.073.223 0 .492.025.796.074.102.016.185.089.215.189l1.234 4.064 8.2.932 3.143-2.202zm-1.565-.855l.58-4.063a68.504 68.504 0 0 0-6.961-.883c-2.647.913-4.863 1.185-4.997 1.194l-.154.01c.844.073 1.64.3 1.68.312a.272.272 0 0 1 .182.18l1.2 3.95 6.426.73 2.044-1.43zm.447 2.297l-.273.19-1.527 1.07a.275.275 0 0 1-.185.048l-8.476-.964a.27.27 0 0 1-.227-.19l-1.237-4.072a4.138 4.138 0 0 0-.543-.042c-.157 0-.34.014-.546.042l-1.201 3.955a.268.268 0 0 1-.199.183l-8.425 1.88a.312.312 0 0 1-.06.006.266.266 0 0 1-.154-.05l-.306-.212-.917-.642v-.002l-.368-.259c.026.084.056.165.085.246v.001c.07.212.78 2.254 2.223 4.253l3.308-1.015c.87-1.341 2.109-2.671 2.99-2.717a9.913 9.913 0 0 1 .465-.012 10.402 10.402 0 0 1 1.224.076c-.324-.294-.39-.64-.438-.792 0 0 1.124.878 2.554.695 1.431-.185 2.32-1.01 2.32-1.01s-.004.602-.628 1.068c1.199-.363 1.695-.487 2.034-.487.375 0 .56.157.721.295l.098.081 2.355 1.865 2.316.248c.432.04.823.073 1.205.073.124 0 .24-.006.349-.013.496-.946.942-2.018 1.32-3.23a16.032 16.032 0 0 0 .144-.562zm-2.916-10.006l-.006-.002-1.905-.126-2.65-.13a14.147 14.147 0 0 1-.306.432c-.48.65-1.434 1.842-2.657 2.857 1.73-.31 4.733-1.079 7.33-2.89l.195-.14zm-5.793.18l.202-.26a21.75 21.75 0 0 0-1.875.273c-2.097.393-4.034 1.045-5.643 1.714a74.323 74.323 0 0 1 3.595-.088c.758 0 1.495.013 2.211.034a16.833 16.833 0 0 0 1.511-1.673zm.695 19.797a3.614 3.614 0 0 1-2.308-1.063l-.098-.099a8.581 8.581 0 0 1-.946.137c-.135.005-.264.017-.405.017l-.21.002-.08-.002c-.853 1.268-2.746 1.515-2.833 1.526-.078.009-.142.02-.23.036a9.653 9.653 0 0 0 3.194.343 12.746 12.746 0 0 0 3.916-.897zm-3.374-1.447c.205-.016.41-.042.617-.073a26.947 26.947 0 0 1-.692-.748l-.372.841h.047c.128 0 .267-.013.4-.02zm-.65-15.249a9.219 9.219 0 0 0 1.018-.72l-1.412-.013a72.97 72.97 0 0 0-5.466.205c-1.668.817-2.691 1.488-2.715 1.505l-1.603 1.07 1.101-1.58c.182-.263.375-.512.574-.749-1.85.207-3.39.452-4.538.664l.589 4.776 2.027 1.42 6.435-1.43 1.205-3.97a.27.27 0 0 1 .121-.153.22.22 0 0 1 .061-.027c.038-.01.68-.194 1.423-.284l1.182-.714zm.74-3.643l-1.346-.012-1.976.021-1.216.576-.017.01c-.183.089-1.779.894-3.281 2.33a33.559 33.559 0 0 1 5.653-2.349 27.96 27.96 0 0 1 2.182-.576zm-8.498 2.55c.63-.625 1.281-1.14 1.856-1.544a31.624 31.624 0 0 0-6.037 2.09 69.866 69.866 0 0 1 4.181-.545zm.42-1.929c.741-.208 1.506-.39 2.29-.542l-3.373.156-1.952.13-.97.086a8.28 8.28 0 0 0-.276.031c-.847.507-4.097 2.547-6.327 5.215 2.168-1.507 5.944-3.77 10.607-5.076zm-5.983 10.51a13.353 13.353 0 0 1-.12-.407l-1.002-.7a.27.27 0 0 1-.113-.188l-.488-3.966c-.362.194-.78.431-.89.525-.097.08-.17.283-.066 1.228.13 1.163.72 3.361 1.037 3.68.382.068 1.227-.05 1.642-.171zm-.74-9.96l-1.367.286.16.606a20.154 20.154 0 0 1 1.207-.891z" fill="#2d3136"/></g></g></svg>