<svg xmlns="http://www.w3.org/2000/svg" width="86" height="54"><rect width="100%" height="100%" fill="none"/><g class="currentLayer"><path d="M7.7 53.528l-3.43-7.2-1.947-4.536-.066.066.155 4.247.088 7.413H0v-15.31h2.876l3.717 7.476a27.983 27.983 0 0 1 1.572 3.938l.066-.066-.22-4.36-.044-7h2.413v15.3zm7.234-4.934v.17c0 1.55.576 3.186 2.766 3.186 1.04 0 1.947-.375 2.788-1.106l.95 1.483a6.05 6.05 0 0 1-4.027 1.483c-3.164 0-5.155-2.278-5.155-5.863 0-1.97.42-3.276 1.395-4.382.907-1.04 2.013-1.505 3.43-1.505a4.324 4.324 0 0 1 3.075 1.15c.974.885 1.46 2.256 1.46 4.868v.5zm2.146-4.7c-1.37 0-2.124 1.084-2.124 2.898h4.137c0-1.8-.795-2.898-2.013-2.898zm17.488 9.678h-2.287l-1.37-5.155-.73-3.058h-.044s-.17 1.106-.73 3.164l-1.35 5.044h-2.28l-3.06-11.086 2.413-.34 1.216 5.42.576 2.943h.066a30.4 30.4 0 0 1 .642-3.01l1.44-5.177h2.4l1.262 5.05.708 3.186h.066l.554-3 1.15-5.223h2.523zm17.338-.044l-1.338-2.37c-1.06-1.88-1.77-2.94-2.6-3.8a1.3 1.3 0 0 0-.997-.457v6.616h-2.5v-15.31h4.67c3.43 0 4.978 2 4.978 4.383 0 2.2-1.415 4.205-3.806 4.205.554.287 1.572 1.77 2.367 3.058l2.256 3.673zm-3.54-13.252h-1.395v4.846h1.305c1.327 0 2.04-.17 2.5-.642.42-.42.68-1.062.68-1.86.01-1.55-.833-2.346-3.1-2.346zm9.902 8.318v.17c0 1.55.576 3.186 2.766 3.186 1.04 0 1.947-.375 2.788-1.106l.95 1.483a6.05 6.05 0 0 1-4.027 1.483c-3.164 0-5.155-2.278-5.155-5.863 0-1.97.42-3.276 1.395-4.382.907-1.04 2.013-1.505 3.43-1.505a4.324 4.324 0 0 1 3.075 1.15c.974.885 1.46 2.256 1.46 4.868v.5zm2.148-4.7c-1.37 0-2.124 1.084-2.124 2.898h4.13c0-1.8-.8-2.898-2.007-2.898zm9.092 9.868c-2.457 0-2.457-2.2-2.457-3.164V41.06c.028-1.095-.043-2.2-.212-3.274l2.5-.554c.17.68.2 1.616.2 3.075v9.5c0 1.505.066 1.748.243 2.013a.68.68 0 0 0 .797.17l.398 1.505a3.82 3.82 0 0 1-1.468.274zm4.235-13.1a1.587 1.587 0 0 1-1.122-.48 1.59 1.59 0 0 1-.45-1.135 1.603 1.603 0 0 1 2.754-1.106 1.6 1.6 0 0 1 .32 1.757c-.26.597-.853.978-1.503.965zm-1.215 12.866v-11.02l2.457-.443v11.46zm9.425.288c-3.058 0-4.757-2.146-4.757-5.753 0-4.078 2.435-6.018 4.927-6.018 1.216 0 2.102.287 3.097 1.216l-1.2 1.614c-.664-.598-1.24-.863-1.88-.863a1.9 1.9 0 0 0-1.77 1.128c-.34.68-.464 1.726-.464 3.12 0 1.53.243 2.5.753 3.058a1.97 1.97 0 0 0 1.483.642c.775 0 1.53-.375 2.256-1.106l1.15 1.483c-1.018 1.013-2.08 1.478-3.583 1.478z"/><path d="M63.821 12.726C61.815 3.512 50.768-1.906 39.138.62S19.713 12.668 21.715 21.878s13.053 14.636 24.68 12.106 19.43-12.037 17.426-21.258zM42.768 25.795a8.493 8.493 0 1 1 8.492-8.492c0 4.7-3.802 8.493-8.493 8.493z" fill="#008c99"/><path d="M44.646 5.412c-6.734 0-12.192 5.462-12.19 12.196S37.916 29.8 44.651 29.8s12.193-5.46 12.193-12.194A12.192 12.192 0 0 0 44.648 5.413zM42.768 24.72a7.42 7.42 0 0 1-5.245-12.664 7.42 7.42 0 0 1 12.664 5.245 7.42 7.42 0 0 1-7.416 7.418z" fill="#70ccd3"/></g></svg>