<svg xmlns="http://www.w3.org/2000/svg" height="59" width="71"><rect width="100%" height="100%" fill="none"/><g class="currentLayer"><path d="M10.684 38.803h3.1l-4.7 15.7H4.7L0 38.803h3.1L6.893 51.88zm11.655 15.688h-2.357l-.2-.748c-1.018.66-2.206 1-3.42 1-2.095 0-2.992-1.436-2.992-3.42 0-2.334 1-3.224 3.344-3.224h2.753v-1.204c0-1.272-.352-1.72-2.192-1.72-1.07.01-2.134.13-3.18.352l-.352-2.192a14.96 14.96 0 0 1 3.935-.539c3.606 0 4.668 1.272 4.668 4.145v7.54zm-2.88-4.332h-2.1c-.943 0-1.204.262-1.204 1.13s.262 1.152 1.152 1.152a4.49 4.49 0 0 0 2.17-.59l-.007-1.7zm8.37 1.25c-.364.177-.618.52-.68.92 0 .307.187.45.636.494l3.322.352c1.863.2 2.446 1.13 2.446 2.783 0 2.454-.898 3.42-5.184 3.42a16.71 16.71 0 0 1-4.429-.59l.352-2.148a15.91 15.91 0 0 0 3.86.494c2.282 0 2.73-.165 2.73-.92s-.2-.823-1.085-.92l-3.322-.374c-1.623-.187-2.244-.748-2.244-2.192a2.43 2.43 0 0 1 1.212-1.953 3.33 3.33 0 0 1-1.556-3.09v-1.087c.045-2.38 1.294-3.815 4.616-3.815a7.84 7.84 0 0 1 1.953.232h3.53v1.436l-1.272.352c.274.556.412 1.17.404 1.788v1.085c0 2.334-1.414 3.74-4.616 3.74a5.99 5.99 0 0 1-.673-.007zm.658-6.314c-1.414 0-1.908.516-1.908 1.6v.875c0 1.13.57 1.556 1.908 1.556s1.93-.45 1.93-1.556v-.875c0-1.085-.486-1.6-1.93-1.6zm12.666.33a22.542 22.542 0 0 0-2.992 1.668v7.4h-2.877v-11.47h2.424l.187 1.272a12.847 12.847 0 0 1 2.992-1.496l.277 2.626zm9.644 9.066H48.44l-.2-.748c-1.018.66-2.206 1-3.42 1-2.095 0-2.992-1.436-2.992-3.42 0-2.334 1-3.224 3.344-3.224h2.753v-1.204c0-1.272-.352-1.72-2.192-1.72-1.07.01-2.134.13-3.18.352l-.344-2.214a14.96 14.96 0 0 1 3.935-.539c3.606 0 4.668 1.272 4.668 4.145l-.007 7.564zm-2.873-4.333h-2.117c-.943 0-1.204.262-1.204 1.13s.262 1.152 1.152 1.152a4.49 4.49 0 0 0 2.17-.59v-1.7zm11.424 4.332v-8.012c0-.613-.262-.92-.92-.92a7.947 7.947 0 0 0-2.992.965v7.96h-2.872v-11.46h2.192l.284.965a11.49 11.49 0 0 1 4.593-1.204c1.908 0 2.588 1.34 2.588 3.4v8.32h-2.873zm11.334-.245a7.99 7.99 0 0 1-2.52.45c-2.095 0-3.157-.988-3.157-3.037v-6.4h-1.72v-2.244h1.72v-2.858l2.873-.404v3.262h2.948l-.187 2.244h-2.76v5.985a.9.9 0 0 0 .267.765c.205.198.5.3.773.245a5.53 5.53 0 0 0 1.436-.232l.33 2.214z"/><g><path d="M53.022 5.991v-3.25l-7.8 4.537v2.74l-6.242 13.46-3.116 2.154v9.854l6.686-3.854zM35.864 18.612l-4.68-10.926v-3.1l-.032-.018-4.647 2.7v2.74l6.237 14.05 3.12-1.54z" fill="#1159cc"/><path d="M48.344.011l-7.8 4.57v3.105l-4.68 10.926v3.648l-3.12 1.8-6.237-14.05V7.265l4.68-2.695-7.8-4.57-4.68 2.73v3.356l10.53 25.577 6.627 3.823V25.88l3.116-1.8-.037-.023 6.278-14.028V7.284l7.8-4.532z" fill="#127eff"/></g></g></svg>