<svg xmlns="http://www.w3.org/2000/svg" xmlns:xlink="http://www.w3.org/1999/xlink" width="56" height="61"><rect id="backgroundrect" width="100%" height="100%" fill="none"/><style>.B{fill-rule:evenodd}.C{fill:#dcd9d8}.D{fill:#d33833}.E{fill:#231f20}.F{fill:#f7e4cd}.G{stroke:#d33833}.H{stroke-width:.293}</style><defs><path id="B" d="M41.648 11.865v.834h1.04v5.66h-1.04v.834h3.482V18.16q.44.655 1.007.945.565.3 1.427.3 1.234 0 1.862-.73.634-.724.634-2.138V12.7h1.048v-.834h-4.38v.834h.9v3.896q0 .93-.24 1.29-.234.365-.82.365-.738 0-1.083-.545-.345-.538-.345-1.717V12.7h.896v-.834h-4.38z"/></defs><g class="currentLayer"><g id="svg_1" stroke-width="0"><path d="M0 60.81v-1.525h.844q.038.61.285.896.255.285.747.285.63 0 .875-.486.254-.47.254-1.811v-8.587H1.597v-.785h5.16v.785h-1.24v8.639q0 1.577-.798 2.304-.79.726-2.524.726-.538 0-1.084-.11T0 60.81zm12.585-6.218q0-1.363-.254-1.907-.254-.552-.863-.552-.591 0-.85.538-.254.539-.254 1.805v.116h2.22zm2.524.772h-4.743v.052q0 1.336.402 1.934.403.591 1.3.591.746 0 1.207-.395.47-.395.591-1.148h1.078q-.28 1.174-1.111 1.726-.831.551-2.325.551-1.79 0-2.752-.94-.954-.949-.954-2.702 0-1.713.979-2.673.978-.96 2.725-.96 1.713 0 2.63 1.013.914 1.007.972 2.953z" id="svg_44"/><use xlink:href="#B" transform="matrix(.94121 0 0 -.94121 7.53 54.683)" id="svg_45" y="-15.906" x="-32.463"/><path d="M29.98 58.486h-4.147v-.785h.98v-8.535h-.98v-.778h3.278v6.494l2.784-2.499h-.825v-.785h3.148v.785H32.94l-1.79 1.597 2.918 3.732h.746v.785h-3.958v-.785h.811l-1.914-2.46-.643.571V57.7h.87v.785zm5.835-8.852q0-.527.363-.883.364-.363.89-.363.513 0 .87.363.363.358.363.883 0 .513-.364.875-.357.358-.87.358-.526 0-.889-.358-.363-.357-.363-.875zm2.513 8.066h.986v.785h-4.266V57.7h.979v-5.327h-.979v-.785h3.277V57.7z" id="svg_46"/><use xlink:href="#B" x="-7.031" transform="matrix(.94121 0 0 -.94121 7.53 54.683)" id="svg_47" y="-15.906"/><path d="M49.938 58.286v-1.928h.734q.091.772.578 1.181.487.403 1.324.403.702 0 1.071-.24.377-.246.377-.701 0-.414-.24-.643-.234-.226-.915-.395l-.948-.24q-1.07-.267-1.55-.76-.471-.499-.471-1.343 0-1.123.778-1.668.778-.551 2.4-.551.61 0 1.299.094.694.097 1.531.31v1.74h-.734q-.058-.708-.506-1.064-.443-.357-1.273-.357-.701 0-1.063.225-.358.22-.358.66 0 .35.207.55.207.202.746.34l.942.24q1.355.343 1.875.85.52.506.52 1.408 0 1.167-.847 1.726-.831.551-2.588.551-.643 0-1.363-.097-.72-.096-1.525-.282z" id="svg_48"/></g><g id="svg_49"><path d="M41.863 21.987c0 9.042-7.165 16.37-16.004 16.37s-16.004-7.33-16.004-16.37S17.02 5.617 25.86 5.617s16.004 7.33 16.004 16.37" class="B D" stroke-width="0" id="svg_2"/><path d="M10.508 26.04S9.349 8.97 25.08 8.482l-1.1-1.83-8.535 2.867-2.437 2.805-2.134 4.085-1.22 4.755.366 3.17" fill="#ef3d3a" stroke-width="0" id="svg_3"/><path d="M14.898 10.82c-2.808 2.872-4.545 6.84-4.545 11.229s1.75 8.355 4.545 11.227 6.681 4.645 10.962 4.645 8.153-1.772 10.963-4.645 4.546-6.84 4.546-11.227-1.75-8.355-4.546-11.23-6.681-4.644-10.963-4.644-8.15 1.772-10.962 4.645zm-.713 23.15c-2.983-3.053-4.828-7.27-4.828-11.923s1.845-8.87 4.828-11.922S21.298 5.18 25.858 5.18s8.687 1.891 11.671 4.944 4.83 7.27 4.829 11.922-1.845 8.87-4.829 11.923-7.111 4.957-11.67 4.957-8.689-1.905-11.672-4.957" class="E" stroke-width="0" id="svg_4"/><g class="B" stroke-width="0" id="svg_5"><path d="M32.597 22.077l-2.438.367-3.292.366-2.134.062-2.073-.062-1.585-.5-1.402-1.525-1.098-3.109-.243-.671-1.463-.5-.854-1.403-.61-2 .672-1.768 1.585-.55 1.28.61.61 1.34.73-.122.245-.305-.234-1.386-.063-1.769.367-2.437-.013-1.393 1.113-1.777 1.95-1.403L27.059.68l3.78.55 3.293 2.377 1.525 2.438.975 1.769.243 4.39-.73 3.78-1.342 3.353-1.28 1.77" fill="#f0d6b7" id="svg_6"/><path d="M30.523 32.625l-8.718.365v1.462l.732 5.122-.367.427-6.096-2.071-.427-.731-.61-6.888-1.403-4.146-.305-.975 4.878-3.354 1.525-.61 1.34 1.646 1.16 1.038 1.34.425.61.182.732 3.17.55.672 1.403-.5-.975 1.89 5.303 2.5-.67.366" fill="#335061" id="svg_7"/><path d="M16.074 11.347l1.585-.55 1.28.61.61 1.342.731-.123.183-.731-.366-1.403.366-3.353-.305-1.83 1.097-1.28 2.378-1.89-.671-.914-3.354 1.646-1.403 1.098-.792 1.707-1.22 1.646-.366 1.95.243 2.073" fill="#6d6b6d" id="svg_8"/><path d="M18.573 5.615s.915-2.256 4.572-3.354.183-.792.183-.792l-3.963 1.525-1.525 1.525-.67 1.22 1.403-.123m-1.83 5.305s-1.279-4.269 3.6-4.877l-.183-.732-3.367.79-.963 3.173.244 2.072.67-.425" class="C" id="svg_9"/><path d="M18.695 16.59l.8-.775s.36.042.422.469.24 4.268 2.876 6.343c.25.188-1.95-.305-1.95-.305l-1.95-3.05m11.021-3.84s.143-1.847.64-1.706.498.64.498.64-1.21.783-1.125 1.066" class="F" id="svg_10"/></g><path d="M34.974 8.677s-1.005.213-1.097 1.098 1.097.182 1.28.122m-7.56-1.17s-1.342.183-1.342 1.038 1.525.792 1.95.427" class="F" stroke-width="0" id="svg_11"/><g class="B" stroke-width="0" id="svg_12"><path d="M19.293 12.677s-2.318-1.402-2.563-.062-.792 2.316.367 3.719l-.793-.244-.731-1.89-.244-1.829 1.403-1.462 1.585.122.915.731.062.915m1.109-3.842s1.037-5.365 6.28-6.4c4.316-.854 6.585.182 7.437 1.159 0 0-3.84-4.573-7.5-3.17s-6.327 3.973-6.277 5.62l.062 2.805m14.142-4.634s-1.768-.063-1.83 1.525c0 0 0 .244.122.5 0 0 1.403-1.585 2.256-.731m-8.302.88s-.304-2.433-2.379-1.018c-1.341.915-1.219 2.195-.975 2.438s.178.735.375.397.125-1.435.795-1.75 1.77-.645 2.196-.079" class="F" id="svg_13"/><path d="M21.073 22.87l-5.73 2.561s2.377 9.45 1.159 12.375l-.854-.305-.063-3.597L14 27.074l-.67-1.89 5.974-4.024 1.768 1.706m.59 5.231l.813.993v3.657H21.5l-.12-2.865c0-.305.12-1.402.12-1.402m.183 4.816l-2.744.121.793.55 1.95.305" fill="#49728b" id="svg_14"/><g fill="#335061" id="svg_15"><path d="M31.072 32.686l2.256-.062.55 5.608-2.316.305-.5-5.852" id="svg_16"/><path d="M31.68 32.686l3.413-.182 1.402-3.72c0-.182 1.22-5.12 1.22-5.12l-2.743-2.865-.55-.5-1.463 1.462v5.67l-1.279 5.255" id="svg_17"/></g><path d="M33.205 32.26l-2.133.425.305 1.707c.792.367 2.133-.61 2.133-.61m-.242-12.192l4.267 3.17.123-1.463-3.231-3-1.16 1.28" fill="#49728b" id="svg_18"/><path d="M23.798 44.697l-1.25-5.122-.628-3.779-.115-2.806 5.713-.304h3.554l-.325 6.403.55 4.937-.063.915-4.634.366-2.805-.61" fill="#fff" id="svg_19"/><path d="M30.28 32.625s-.305 6.341.61 10.852c0 0-1.828 1.16-4.512 1.463l5.121-.183.61-.366-.731-10-.183-2.134" class="C" id="svg_20"/><path d="M33.98 37.747l2.378-.67 4.512-.245.672-2.072-1.22-3.598-1.403-.182-1.95.61-1.871.912-.994-.182-.775.304" fill="#fff" id="svg_21"/><path d="M33.937 36.527s1.585-.73 1.828-.67l-.67-3.353.793-.305.55 3.537 3.719.183s.73-1.403.55-2.865l.67 1.95.063 1.097-.975 1.463-1.097.243-1.829-.062-.61-.793-2.134.305-.67.244" class="C" id="svg_22"/></g><path d="M31.543 32.199l-1.341-3.413-1.403-2s.305-.854.731-.854h1.403l1.341.5-.121 2.257-.61 3.51" fill="#fff" stroke-width="0" id="svg_23"/><path d="M31.803 31.052s-1.708-3.292-1.708-3.78c0 0 .305-.73.732-.55s1.34.67 1.34.67v-1.158l-2.072-.428-1.402.183 2.377 5.608.5.063" class="B C" stroke-width="0" id="svg_24"/><path d="M24.347 22.994l-1.688-.184-1.585-.5v.55l.775.854 2.438 1.097" fill="#fff" stroke-width="0" id="svg_25"/><g class="B" stroke-width="0" id="svg_26"><path d="M21.622 23.177s1.89.793 2.5.61l.062.732-1.706-.365-1.038-.732.183-.243" class="C" id="svg_27"/><path d="M33.974 26.127c-1.035-.03-1.969-.153-2.787-.383.055-.335-.05-.665.035-.907.227-.162.61-.162.955-.2a1.663-1.663 0 01-1.062-.12c-.007-.232-.125-.377-.175-.558.582-.208 1.955-1.57 2.728-1.118.367.213.525 1.438.552 2.034.025.494-.045.992-.246 1.254" class="D" id="svg_28"/></g><path d="M33.974 26.127c-1.035-.03-1.969-.153-2.787-.383.055-.335-.05-.665.035-.907.227-.162.61-.162.955-.2a1.663-1.663 0 01-1.062-.12c-.007-.232-.125-.377-.175-.558.582-.208 1.955-1.57 2.728-1.118.367.213.525 1.438.552 2.034.025.494-.045.992-.246 1.254z" fill="none" class="G H" stroke-width="0" id="svg_29"/><path d="M29.027 24.436l-.01.238c-.322.212-.844.21-1.2.375a3.113-3.113 0 001.29.326l-.022.591c-.592.405-1.132 1.009-1.83 1.388-.33.18-1.487.642-1.837.56-.2-.047-.216-.293-.295-.525-.169-.498-.558-1.288-.593-2.038-.043-.945-.137-2.529.88-2.334.822.157 1.778.535 2.413.883.387.212.612.475 1.204.52" class="B D" stroke-width="0" id="svg_30"/><path d="M29.027 24.436l-.01.238c-.322.212-.844.21-1.2.375a3.113-3.113 0 001.29.326l-.022.591c-.592.405-1.132 1.009-1.83 1.388-.33.18-1.487.642-1.837.56-.2-.047-.216-.293-.295-.525-.169-.498-.558-1.288-.593-2.038-.043-.945-.137-2.529.88-2.334.822.157 1.778.535 2.413.883.387.212.612.475 1.204.52z" fill="none" class="G H" stroke-width="0" id="svg_31"/><path d="M29.614 25.565c-.09-.515-.195-.663-.154-1.11 1.373-.915 1.63 1.572.154 1.11" class="B D" stroke-width="0" id="svg_32"/><path d="M29.614 25.565c-.09-.515-.195-.663-.154-1.11 1.373-.915 1.63 1.572.154 1.11z" fill="none" class="G H" stroke-width="0" id="svg_33"/><path d="M31.603 25.98s-.428-.61-.123-.793.61 0 .793-.305 0-.5.062-.853.367-.428.672-.5 1.158-.183 1.28.122l-.367-1.097-.73-.244-2.317 1.341-.123.671v1.343m-5.55 2.329l-.25-2.853c-.128-1.419.342-1.171 1.572-1.171.187 0 1.157.225 1.225.366.332.679-.557.529.382 1.04.793.433 2.193-.25 1.873-1.225-.18-.212-.934-.066-1.205-.206l-1.43-.741c-.605-.315-2.005-.773-2.652-.334-1.625 1.125.104 3.895.688 5.056" fill="#ef3d3a" class="B" stroke-width="0" id="svg_34"/><path d="M26.793 6.39c-1.663-.375-2.5.695-2.991 1.817-.45-.108-.272-.72-.158-1.032.298-.818 1.496-1.906 2.475-1.759.421.063.991.45.673.975m8.11 1.893l.078.002c.375.78.7 1.606 1.175 2.295-.317.75-2.402 1.394-2.37.066.45-.197 1.23-.04 1.63-.292-.232-.635-.566-1.175-.5-2.073m-7.247.02c.356.654.472 1.34.979 1.833.227.222.67.492.45 1.125-.05.146-.428.471-.644.535-.791.234-2.625.05-2-.938.655.03 1.535.425 2.025-.05-.375-.6-1.046-1.79-.8-2.49m6.927 6.625c-1.192.767-2.52 1.6-4.475 1.405-.417-.375-.575-1.17-.17-1.703.212.375.078 1.03.665 1.13 1.11.19 2.4-.677 3.197-.98.495-.834-.043-1.14-.5-1.675-.913-1.1-2.135-2.463-2.09-4.107.368-.267.4.408.453.532.475 1.125 1.675 2.537 2.55 3.492.215.235.57.46.608.615.125.45-.295.993-.248 1.293m-15.707-.808c-.375-.212-.463-1.152-.9-1.179-.628-.037-.5 1.22-.51 1.954-.431-.391-.508-1.597-.19-2.217-.375-.178-.523.196-.723.327.258-1.871 2.75-.867 2.325 1.116m16.473 1.584c-.555 1.056-1.34 2.22-2.969 2.254-.032-.341-.059-.86.001-1.065 1.245-.12 2-.754 2.967-1.188m-7.8.684c1.037.546 2.947.605 4.358.563.075.308.075.69.075 1.068-1.815.09-3.96-.358-4.437-1.632m-.194 1.02c.719 1.804 3.188 1.596 5.269 1.546-.091.234-.29.5-.538.625-.667.271-2.507.478-3.432-.015-.588-.312-.965-1.017-1.288-1.431-.155-.2-.928-.71-.012-.713" class="E B" stroke-width="0" id="svg_35"/><path d="M34.518 27.371l-2.65 4.2c.419-1.232.6-3.296.662-4.869.878-.41 1.628.093 2 .67" fill="#81b0c4" class="B" stroke-width="0" id="svg_36"/><path d="M39.053 32.56c-.944.187-1.606 1.106-2.528 1.047.507-.712 1.393-1 2.528-1.047m.415 1.475c-.769.081-1.673.206-2.453.141.37-.562 1.793-.37 2.453-.141m.267 1.275c-.865.019-1.937.001-2.76-.068.5-.522 2.2-.193 2.76.068" class="E B" stroke-width="0" id="svg_37"/><path d="M32.893 38.794c.125 1.085.555 2.185.5 3.375-.478.162-.753.302-1.393.3l-.14-3.52c.315.022.78-.224 1.033-.157" class="B C" stroke-width="0" id="svg_38"/><path d="M31.498 22.795c-.434.284-.804.625-1.22.94-.925.046-1.429-.063-2.108-.595.013-.043.08-.025.083-.075.99.441 2.247-.18 3.246-.269" fill="#f0d6b7" class="B" stroke-width="0" id="svg_39"/><path d="M26.303 29.552c.271-1.177 1.337-1.787 2.305-2.437 1 1.267 1.606 2.896 2.275 4.47-1.58-.475-3.194-1.25-4.579-2.033" fill="#81b0c4" class="B" stroke-width="0" id="svg_40"/><path d="M31.86 38.952c-.04.963.094 2.508.14 3.52.64 0 .914-.14 1.392-.3.053-1.188-.375-2.288-.5-3.376-.253-.067-.718.179-1.033.158zm-9.972-5.478c.422 3.88 1.034 7.145 2.155 10.582 2.49.756 5.491.821 7.691.14-.404-1.94-.227-4.302-.462-6.372l-.332-4.71c-2.666-.555-6.435-.13-9.052.36zm9.682-.335c-.022 1.667.075 3.312.203 4.98l1.669-.29c-.194-1.608-.17-3.415-.563-4.838-.455.004-.855-.005-1.309.146zm3.248-.27c-.304-.07-.658-.002-.948.003l.584 4.285c.456.013.7-.2 1.075-.275.02-1.252-.11-2.977-.712-4.015zm4.917 4.493c.953-.23 1.55-1.397 1.284-2.595-.179-.805-.497-2.32-.837-2.835-.25-.38-.934-.878-1.48-.53-.887.568-2.447.733-3.093 1.42.325 1.078.425 2.562.559 3.928 1.107.069 2.47-.305 3.391.092-.642.21-1.477.21-2.032.513.453.219 1.516.175 2.21.006zm-8.855-5.79c-.668-1.572-1.275-3.202-2.275-4.47-.967.65-2.032 1.26-2.305 2.438 1.385.784 3 1.556 4.58 2.032zm1.65-4.87c-.062 1.573-.242 3.638-.662 4.87 1-1.276 1.806-2.757 2.65-4.2-.359-.576-1.11-1.08-2-.67zm-1.868-.662c-.38-.041-.7.435-1.193.23l-.33.381c1.088 1.313 1.583 3.171 2.423 4.713.45-1.48.4-3.1.5-4.717-.62.038-.963-.56-1.398-.606zm-1.2-1.588c-.04.45.062.597.153 1.11 1.475.463 1.22-2.025-.153-1.11zm-1.638-.537c-.637-.348-1.591-.725-2.412-.883-1.02-.195-.923 1.388-.88 2.334.033.748.422 1.538.592 2.038.079.232.098.478.295.525.35.08 1.508-.382 1.838-.56.697-.38 1.25-.984 1.83-1.388l.022-.591a3.113-3.113 0 01-1.29-.326c.355-.18.875-.175 1.2-.375l.009-.238c-.59-.045-.815-.307-1.204-.52zM21.75 22.81c-.527.538 1.48 1.266 2.12 1.306-.004-.337.194-.658.154-.902-.76-.134-1.758-.045-2.275-.404zm6.503.25c-.003.053-.072.034-.083.075.679.531 1.184.64 2.108.595l1.22-.94c-1 .088-2.258.71-3.247.269zm5.968 1.81c-.028-.595-.185-1.82-.552-2.034-.773-.45-2.145.91-2.728 1.118.063.182.168.325.175.559a1.663-1.663 0 001.062.12c-.345.037-.728.037-.955.2-.084.24.02.57-.035.906.818.231 1.752.354 2.787.384.2-.263.27-.76.246-1.254zM20.86 23.33c-.166-.119-1.287-1.578-1.44-1.516-2.03.8-3.926 2.183-5.622 3.492 1.616 3.469 2.27 7.718 2.382 11.814 1.85.866 3.48 2.115 5.992 2.245l-.722-5.83c-.63-.266-1.537.012-2.127-.083-.005-.712.902-.312.977-.79.058-.375-.5-.39-.318-.96.462.168.705.538 1.197.678.45-.985-.006-2.728.059-3.55.012-.155.077-.856.425-.733.306.11-.018 1.867.016 2.645.03.718-.087 1.413.204 1.875a69.595 69.595 0 017.522-.616c-.577-.247-1.265-.482-2.017-.907-.408-.23-1.695-.71-1.813-1.097-.187-.617.493-.946.61-1.475-1.225.67-1.465-.64-1.755-1.568-.25-.84-.412-1.468-.475-1.953-1.056-.504-2.185-1-3.093-1.659zm12.288-1.34c1.69-.82 1.995 3.062 1.332 4.315.103.372.455.516.6.85l-2.953 4.937c.716-.446 1.737-.08 2.58-.412.308-.121.532-.828.763-1.391.642-1.553 1.315-3.51 1.615-4.99.068-.338.253-1.073.213-1.373-.075-.537-.804-.937-1.175-1.269l-1.83-1.73c-.288.428-.91.713-1.146 1.063zM16.993 6.997c-.805.888-.625 2.548-.54 3.73 1.456-.917 3.387.072 3.37 1.63.695-.02.26-.87.134-1.417-.413-1.788.692-3.731.05-5.366-1.248.095-2.272.603-3.015 1.422zm5.762-5.143c-1.825.517-4.162 1.842-4.91 3.48.58-.084.983-.378 1.555-.413.217-.012.5.091.75.029.495-.123.913-1.234 1.288-1.648.365-.403.802-.575 1.102-.943.193-.093.478-.088.488-.375-.084-.088-.171-.158-.271-.13zm9.494.487c-1.892-1.067-5.096-1.871-7.11-.867-1.625.81-3.821 2.15-4.57 3.85.7 1.637-.207 3.14-.265 4.805-.031.885.418 1.658.45 2.622-.237.395-.97.444-1.475.416-.17-.852-.469-1.812-1.346-1.907-1.243-.138-2.15.892-2.208 1.967-.066 1.263.97 3.358 2.442 3.213.567-.056.707-.625 1.325-.62.335.669-.518.88-.605 1.357-.023.125.07.607.125.834.267 1.104.875 2.531 1.45 3.371.743 1.065 2.205 1.225 3.777 1.33.281-.605 1.315-.555 1.988-.397-.808-.32-1.56-1.095-2.182-1.781-.715-.788-1.437-1.633-1.475-2.663 1.35 1.875 2.467 3.513 4.925 4.335 1.86.625 4.03-.287 5.458-1.287.592-.417.946-1.08 1.367-1.684 1.575-2.268 2.313-5.503 2.15-8.64-.066-1.294-.062-2.583-.497-3.453-.454-.91-2-1.725-2.888-.9-.166-.885.747-1.432 1.82-1.112-.765-1-1.567-2.175-2.655-2.788zm3.525 29.185c1.479-.735 4.243-1.979 5.17.003.343.73.744 1.965.921 2.72.25 1.062-.27 3.3-1.365 3.657-.966.315-2.092.296-3.256.063a1.775-1.775 0 00-.396-.52c-.831-.033-1.609.045-2.265.387.062.613-.354.713-.743.84-.287 1.145.578 2.64.37 3.685-.147.744-1.062.859-1.737.998-.023.412.03.758.075 1.108-.154.567-.844.89-1.498.97-2.15.258-5.416.374-7.485-.37-.577-1.416-1.032-3.137-1.5-4.755-2.017.215-3.65-.87-5.187-1.582-.533-.248-1.27-.383-1.469-.808-.192-.41-.112-1.197-.162-1.94-.122-1.897-.225-3.728-.728-5.672-.225-.873-.617-1.641-.891-2.481-.253-.78-.695-1.742-.81-2.518-.171-1.15.912-1.215 1.606-1.712 1.071-.772 1.913-1.198 3.073-1.894.343-.206 1.38-.728 1.497-.969.234-.475-.402-1.15-.572-1.521-.27-.59-.41-1.093-.45-1.675a3.216 3.216 0 01-2.157-1.388c-.75-1.08-1.25-3.08-.612-4.602.05-.12.3-.355.337-.54.073-.375-.137-.844-.15-1.23-.067-1.978.335-3.681 1.665-4.278.54-2.152 2.475-2.868 4.297-3.937.68-.4 1.432-.655 2.207-.941 2.781-1.025 7.05-.832 9.358.915.978.74 2.543 2.303 3.103 3.435 1.48 3 1.375 7.982.338 11.616-.138.5-.34 1.205-.623 1.791-.196.409-.806 1.229-.732 1.59.075.375 1.391 1.371 1.672 1.644.508.49 1.472 1.14 1.55 1.757.084.658-.29 1.558-.478 2.192l-1.968 5.962" class="B E" stroke-width="0" id="svg_41"/><path d="M25.91 16.867c.08-.106.52-.268 1.137.03 0 0-.732.122-.672 1.34l-.305-.062s-.315-1.106-.162-1.309" class="B F" stroke-width="0" id="svg_42"/><path d="M31.255 27.352a.335.335 0 11-.67 0 .335.335 0 01.67 0m.335 1.554a.335.335 0 11-.67 0 .335.335 0 01.67 0" fill="#1d1919" class="B" stroke-width="0" id="svg_43"/></g></g></svg>